 http://img8.imageshack.us/img8/4998/exit332011.jpg

Country.......: USA
Genre.........: Horror
Date release..: 01.01.2011 [World]
Director......: Tommy Brunswick
Writers.......: Mark Myers, Norman Koza
Duration......: 83 min.
More..........: http://www.imdb.com/title/tt1772850
Trailer.......:

Pilot :
A few miles off EXIT 33, lies IKE'S LAST CHANCE GAS. A secluded sleepy hideaway where Ike prepares a special jerky for customers, and a terrifying secret. Ike and his son are controlled by a mysterious ghost, whose bidding lead Ike to abduct and torture beautiful women travelers. But, there is more to this story than meets the eye... literally!  

Cats :
Kane Hodder   	 ...  	Ike
Antoinette Nikprelaj 	... 	Angie
Jerry Reid 	... 	Matt
Maria Hildreth 	... 	Eva
Paul Elia 	... 	Dax
Virginia Bryant 	... 	Wife
Christian Koza 	... 	Boy
April Canning 	... 	Marla
Tim Cole 	... 	Law Man
John Anton 	... 	Joe
Lon Tedder 	... 	Randy
Josh Tobias 	... 	Bus Driver
Sonya Warrick 	... 	Girl
Eddie Koza 	... 	Customer #1
Julian Jeberaeel 	... 	Customer #2 

Data Technical :
!!! SAMPLE !!!
Audio.....: English
Subtitles.: None
Format                           : AVI
Format/Info                      : Audio Video Interleave
File size                        : 1.10 GiB
Duration                         : 1h 23mn
Overall bit rate                 : 1 900 Kbps
Video
ID                               : 0
Format                           : MPEG-4 Visual
Format profile                   : Advanced Simple@L5
Format settings, BVOP            : Yes
Format settings, QPel            : No
Format settings, GMC             : No warppoints
Format settings, Matrix          : Default (H.263)
Codec ID                         : XVID
Codec ID/Hint                    : XviD
Duration                         : 1h 23mn
Bit rate                         : 1 699 Kbps
Width                            : 720 pixels
Height                           : 400 pixels
Display aspect ratio             : 16:9
Frame rate                       : 29.970 fps
Color space                      : YUV
Chroma subsampling               : 4:2:0
Bit depth                        : 8 bits
Scan type                        : Progressive
Bits/(Pixel*Frame)               : 0.197
Stream size                      : 1 011 MiB (89%)
Writing library                  : XviD 1.2.1 (UTC 2008-12-04)
Audio
ID                               : 1
Format                           : AC-3
Format/Info                      : Audio Coding 3
Mode extension                   : CM (complete main)
Codec ID                         : 2000
Duration                         : 1h 23mn
Bit rate mode                    : Constant
Bit rate                         : 192 Kbps
Channel(s)                       : 2 channels
Channel positions                : Front: L R
Sampling rate                    : 48.0 KHz
Bit depth                        : 16 bits
Stream size                      : 114 MiB (10%)
Alignment                        : Aligned on interleaves
Interleave, duration             : 64 ms (1.92 video frames)
Interleave, preload duration     : 192 ms
Title                            : exit33 T80 2_0ch 192Kbps DELAY 0ms

Screen : 
http://img191.imageshack.us/img191/3804/exit332011s1.jpg 
http://img685.imageshack.us/img685/2397/exit332011s2.jpg 
http://img707.imageshack.us/img707/1979/exit332011s3.jpg 
http://img847.imageshack.us/img847/8686/exit332011s4.jpg 
http://img828.imageshack.us/img828/1839/exit332011s5.jpg